<svg width="125" height="125" viewBox="0 0 125 125" fill="none" xmlns="http://www.w3.org/2000/svg">
<path d="M95.7832 55.1928C95.7832 51.2355 92.564 48.0165 88.6067 48.0165H75.4177C78.6221 44.4147 80.7163 40.3134 81.1208 36.634C81.3679 34.3867 80.6736 32.1559 79.2153 30.5136C77.8826 29.0124 76.0601 28.1757 74.0835 28.1574C74.0606 28.1572 74.0376 28.1572 74.0149 28.1572C72.103 28.1572 70.3086 28.8935 68.9543 30.2353C67.5999 31.5773 66.8503 33.3652 66.8416 35.2731C66.772 35.6909 66.0371 37.131 64.239 38.841C62.7668 40.2414 60.2239 42.1664 56.4692 43.3854C54.9971 43.8635 53.6516 44.7436 52.4705 46.0014C51.8506 46.6611 50.9224 47.5722 49.7732 48.4868C49.2092 48.1879 48.5679 48.017 47.8865 48.017H35.3604C33.1299 48.017 31.3154 49.8315 31.3154 52.062V85.4648C31.3154 87.6953 33.1299 89.5097 35.3604 89.5097H47.8865C49.407 89.5097 50.7329 88.6655 51.4238 87.4221H83.3874C86.769 87.4221 89.52 84.6711 89.52 81.2895C89.52 80.1525 89.2092 79.0871 88.6677 78.173C90.4297 77.0944 91.6077 75.1516 91.6077 72.9387C91.6077 71.8017 91.2969 70.7363 90.7554 69.8222C92.5173 68.7436 93.6953 66.8007 93.6953 64.5878C93.6953 63.3081 93.3013 62.1186 92.6282 61.1342C94.5308 59.842 95.7832 57.6608 95.7832 55.1928ZM88.6067 58.4548H87.5627C86.4819 58.4548 85.6055 59.331 85.6055 60.4121C85.6055 61.4929 86.4817 62.3693 87.5627 62.3693C88.7859 62.3693 89.781 63.3644 89.781 64.5876C89.781 65.8107 88.7859 66.8059 87.5627 66.8059H85.4751C84.3943 66.8059 83.5178 67.6821 83.5178 68.7631C83.5178 69.8439 84.394 70.7204 85.4751 70.7204C86.6982 70.7204 87.6934 71.7155 87.6934 72.9387C87.6934 74.1618 86.6982 75.1569 85.4751 75.1569H83.3874C82.3066 75.1569 81.4302 76.0331 81.4302 77.1142C81.4302 78.195 82.3064 79.0715 83.3874 79.0715C84.6106 79.0715 85.6057 80.0666 85.6057 81.2897C85.6057 82.5129 84.6106 83.508 83.3874 83.508H51.9314V64.5883C51.9314 63.5075 51.0552 62.6311 49.9741 62.6311C48.8931 62.6311 48.0168 63.5073 48.0168 64.5883V85.465C48.0168 85.5371 47.9585 85.5954 47.8865 85.5954H35.3604C35.2883 85.5954 35.23 85.5371 35.23 85.465V52.0612C35.23 51.9892 35.2883 51.9309 35.3604 51.9309H47.8865C47.9585 51.9309 48.0168 51.9892 48.0168 52.0612V56.2368C48.0168 57.3176 48.8931 58.194 49.9741 58.194C51.0552 58.194 51.9314 57.3178 51.9314 56.2368V52.0612C51.9314 51.9663 51.9236 51.8732 51.917 51.78C53.3845 50.644 54.5581 49.4955 55.3237 48.6806C56.0481 47.9089 56.8401 47.3801 57.6777 47.1083C62.2847 45.6127 65.385 43.2045 67.1743 41.4477C69.417 39.2458 70.7556 36.9504 70.7556 35.3071C70.7556 34.4389 71.0942 33.6252 71.7092 33.0158C72.3318 32.3989 73.1562 32.0729 74.0471 32.0717C75.1443 32.082 75.8708 32.6433 76.2876 33.1125C77.002 33.9169 77.3535 35.0737 77.2292 36.2062C76.8018 40.0952 73.6917 44.9023 69.3059 48.4526C68.6616 48.9743 68.4158 49.8454 68.6924 50.6269C68.969 51.4084 69.7083 51.9309 70.5374 51.9309H88.6062C90.405 51.9309 91.8682 53.394 91.8682 55.1928C91.8682 56.9916 90.4053 58.4548 88.6067 58.4548Z" fill="#EF5E43"/>
<path d="M41.6235 77.2227C40.5427 77.2227 39.656 78.1094 39.656 79.1902C39.656 80.2711 40.5427 81.1578 41.6235 81.1578C42.7043 81.1578 43.5911 80.2711 43.5911 79.1902C43.5913 78.1097 42.7046 77.2227 41.6235 77.2227Z" fill="#EF5E43"/>
<path d="M121.511 62.4999L124.874 53.6027C125.119 52.9555 125.003 52.2272 124.57 51.6869L118.623 44.2641L119.071 34.7633C119.104 34.0724 118.769 33.415 118.191 33.0353L110.241 27.8134L107.732 18.6391C107.549 17.9716 107.028 17.4501 106.361 17.2677L97.1864 14.7585L91.9644 6.80899C91.5846 6.23062 90.9273 5.89713 90.2364 5.92862L80.7357 6.37686L73.3128 0.42984C72.7728 -0.00277685 72.0445 -0.118255 71.3971 0.126374L62.4998 3.48868L53.6031 0.126618C52.9554 -0.118255 52.2274 -0.00277688 51.6873 0.430084L44.2645 6.37711L34.7638 5.92886C34.0694 5.89615 33.4154 6.23111 33.0357 6.80924L27.814 14.7589L18.6397 17.2682C17.9722 17.4508 17.4508 17.9723 17.2684 18.6396L14.7591 27.8139L6.8094 33.0356C6.23103 33.4154 5.89632 34.0727 5.92903 34.7636L6.37727 44.2643L0.43025 51.6872C-0.00236681 52.2272 -0.117845 52.9555 0.126784 53.6029L3.48884 62.4999L0.126539 71.3969C-0.118334 72.0441 -0.00285509 72.7724 0.430006 73.3127L6.37703 80.7355L5.92879 90.2363C5.89607 90.9272 6.23103 91.5846 6.80916 91.9643L14.7589 97.1862L17.2681 106.361C17.4508 107.028 17.9722 107.549 18.6395 107.732L27.8138 110.241L33.0355 118.191C33.4154 118.769 34.0738 119.102 34.7635 119.071L44.2642 118.623L51.6871 124.57C52.2271 125.003 52.9557 125.118 53.6029 124.873L62.5001 121.511L71.3973 124.873C71.6219 124.958 71.856 125 72.089 125C72.5274 125 72.9603 124.852 73.3128 124.57L80.7357 118.623L90.2364 119.071C90.9295 119.102 91.5846 118.769 91.9644 118.191L97.1864 110.241L106.361 107.732C107.028 107.549 107.55 107.028 107.732 106.361L110.241 97.1862L118.191 91.9643C118.769 91.5844 119.104 90.9272 119.071 90.2363L118.623 80.7355L124.57 73.3127C125.003 72.7726 125.118 72.0443 124.874 71.3969L121.511 62.4999ZM117.588 63.1918L120.817 71.7365L115.106 78.8652C114.808 79.237 114.656 79.705 114.678 80.1811L115.109 89.3053L107.474 94.3202C107.076 94.5817 106.786 94.9799 106.661 95.4399L104.251 104.251L95.44 106.661C94.9803 106.786 94.5824 107.076 94.3204 107.474L89.3055 115.109L80.1812 114.678C79.7049 114.656 79.2372 114.808 78.8653 115.106L71.7367 120.817L63.192 117.588C62.9691 117.504 62.7345 117.462 62.5001 117.462C62.2657 117.462 62.0311 117.504 61.8082 117.588L53.2635 120.817L46.1348 115.106C45.763 114.808 45.2943 114.656 44.8189 114.678L35.6947 115.109L30.6798 107.474C30.4183 107.076 30.0201 106.786 29.5601 106.661L20.7493 104.251L18.3394 95.4399C18.2137 94.9801 17.9244 94.5822 17.526 94.3202L9.89143 89.3053L10.3221 80.1811C10.3446 79.7048 10.1925 79.237 9.89436 78.8652L4.18294 71.7365L7.41219 63.1918C7.58064 62.746 7.58064 62.2538 7.41219 61.808L4.18294 53.2633L9.89436 46.1347C10.1925 45.7629 10.3446 45.2948 10.3221 44.8188L9.89143 35.6945L17.526 30.6796C17.9242 30.4181 18.2137 30.0199 18.3394 29.56L20.7493 20.7492L29.5601 18.3393C30.0199 18.2135 30.4178 17.9242 30.6798 17.5258L35.6947 9.89127L44.8189 10.3219C45.2945 10.3441 45.763 10.1923 46.1348 9.8942L53.2635 4.18277L61.8082 7.41202C62.2542 7.58048 62.7462 7.58048 63.192 7.41202L71.7367 4.18277L78.8653 9.8942C79.2372 10.1925 79.7054 10.3444 80.1812 10.3219L89.3055 9.89127L94.3204 17.5258C94.5819 17.924 94.9801 18.2135 95.44 18.3393L104.251 20.7492L106.661 29.56C106.786 30.0197 107.076 30.4176 107.474 30.6796L115.109 35.6945L114.678 44.8188C114.656 45.2951 114.808 45.7629 115.106 46.1347L120.817 53.2633L117.588 61.808C117.42 62.2541 117.42 62.746 117.588 63.1918Z" fill="#EF5E43"/>
<path d="M99.2762 28.7042C98.7891 28.174 98.284 27.6466 97.774 27.1369C97.264 26.6271 96.7369 26.1217 96.2066 25.6347C95.4105 24.9037 94.1724 24.9564 93.4412 25.7528C92.7103 26.549 92.763 27.7873 93.5594 28.5182C94.0484 28.9674 94.5352 29.4337 95.0059 29.9044C95.4764 30.3749 95.943 30.862 96.3924 31.3512C96.7784 31.7716 97.3058 31.9848 97.8348 31.9848C98.3077 31.9848 98.7821 31.8144 99.1578 31.4694C99.9542 30.7387 100.007 29.5004 99.2762 28.7042Z" fill="#EF5E43"/>
<path d="M89.2561 20.2938C79.8176 14.2806 68.4538 11.6082 57.2593 12.7672C45.9006 13.9439 35.1902 19.0469 27.1003 27.1365C18.1972 36.0396 13.0136 47.8668 12.5044 60.4393C11.9983 72.9378 16.1379 85.0726 24.1611 94.6077C24.5481 95.0677 25.1018 95.3048 25.6599 95.3048C26.1047 95.3048 26.552 95.1539 26.9189 94.8453C27.7458 94.1493 27.8523 92.9146 27.1565 92.0877C19.7636 83.3013 15.9492 72.1182 16.4155 60.598C16.8847 49.0106 21.6621 38.1102 29.8679 29.9046C37.3239 22.4483 47.195 17.7449 57.6623 16.6607C67.9834 15.5914 78.456 18.0545 87.1526 23.595C88.0644 24.1758 89.2739 23.9078 89.8547 22.9962C90.4358 22.0843 90.1675 20.8746 89.2561 20.2938Z" fill="#EF5E43"/>
<path d="M104.617 35.6547C104.036 34.7428 102.826 34.4747 101.915 35.0555C101.003 35.6363 100.735 36.8463 101.316 37.7577C106.856 46.4545 109.319 56.9276 108.25 67.2479C107.166 77.7152 102.463 87.5861 95.0066 95.0426C86.8008 103.248 75.9004 108.026 64.3132 108.495C52.7949 108.963 41.6096 105.147 32.8235 97.7545C31.9966 97.0585 30.7619 97.1649 30.0659 97.9921C29.3698 98.819 29.4763 100.054 30.3034 100.75C39.3174 108.334 50.6528 112.448 62.424 112.448C63.105 112.448 63.7886 112.434 64.4721 112.406C77.0447 111.897 88.8716 106.714 97.7749 97.8107C105.865 89.7208 110.968 79.0101 112.144 67.6515C113.303 56.4562 110.63 45.0929 104.617 35.6547Z" fill="#EF5E43"/>
</svg>
