<svg width="136" height="125" viewBox="0 0 136 125" fill="none" xmlns="http://www.w3.org/2000/svg">
<path d="M67.9223 61.572L48.9194 59.4604C47.2738 59.275 46.1242 61.1641 47.0436 62.5428L50.554 67.8082L47.0436 73.0736C46.1775 74.3736 47.1427 76.1682 48.6996 76.1682H53.0806C53.0804 76.2121 53.0785 76.2564 53.0785 76.3006C53.0785 84.4225 59.6861 91.03 67.8079 91.03C72.6029 91.03 77.1129 88.684 79.8708 84.7546C79.8955 84.7196 79.9164 84.6828 79.9384 84.6471C79.9556 84.624 79.9746 84.6031 79.9908 84.579C81.6563 82.1318 82.537 79.2693 82.537 76.3009C82.5373 68.2172 75.9912 61.6337 67.9223 61.572ZM67.8079 87.0489C61.8811 87.0489 57.0596 82.2272 57.0596 76.3006C57.0596 76.2564 57.0633 76.2121 57.0638 76.1679H70.9988L75.889 83.3823C73.8587 85.6949 70.9165 87.0489 67.8079 87.0489ZM78.0705 79.5056L73.7019 73.0609C73.3313 72.5145 72.7144 72.1874 72.0544 72.1874H52.419L54.6023 68.9125C55.0478 68.2437 55.0478 67.3728 54.6021 66.7042L52.7252 63.8889L67.5883 65.5403C67.6614 65.5483 67.7348 65.5525 67.8082 65.5525C73.735 65.5525 78.5565 70.3743 78.5565 76.3009C78.5562 77.399 78.3912 78.4771 78.0705 79.5056Z" fill="#EF5E43"/>
<path d="M76.3006 91.295H59.3155C54.7059 91.295 50.9556 95.0453 50.9556 99.6549V123.009C50.9556 124.109 51.8466 125 52.9461 125H82.6701C83.7696 125 84.6606 124.109 84.6606 123.009V99.6549C84.6603 95.0453 80.9102 91.295 76.3006 91.295ZM69.2928 95.276L68.4966 97.6647H67.1195L66.3233 95.276H69.2928ZM67.4112 101.645H68.2047L69.9431 113.814L67.8079 115.948L65.6728 113.813L67.4112 101.645ZM80.6795 121.019H54.9364V99.6549C54.9364 97.2403 56.9009 95.276 59.3153 95.276H62.1269L63.6478 99.8388L61.5911 114.235C61.5023 114.856 61.7111 115.481 62.1539 115.924L66.4001 120.171C67.1672 120.937 68.4481 120.937 69.2152 120.171L73.4614 115.924C73.9043 115.481 74.113 114.856 74.0243 114.235L71.9675 99.8388L73.4887 95.276H76.3004C78.715 95.276 80.6793 97.2406 80.6793 99.6549V121.019H80.6795Z" fill="#EF5E43"/>
<path d="M135.613 55.0099C135.581 53.9493 134.686 53.0787 133.625 53.0787H95.4085C94.3262 53.0787 93.418 53.9864 93.418 55.0692V80.547C93.418 81.6464 94.309 82.5375 95.4085 82.5375H100.982C102.081 82.5375 102.972 81.6464 102.972 80.547C102.972 79.4475 102.081 78.5564 100.982 78.5564H97.399V59.1387L113.295 71.502C114.005 72.0548 115.029 72.0548 115.739 71.502L131.635 59.1387V78.5564H110.005C108.906 78.5564 108.015 79.4475 108.015 80.547C108.015 81.6464 108.906 82.5375 110.005 82.5375H133.625C134.725 82.5375 135.616 81.6464 135.616 80.547V55.0692C135.616 55.0491 135.613 55.0297 135.613 55.0099ZM114.517 67.4092L101.21 57.0595H127.824L114.517 67.4092Z" fill="#EF5E43"/>
<path d="M68.0732 0C56.5856 0 47.2397 9.34583 47.2397 20.8334C47.2397 32.321 56.5856 41.6669 68.0732 41.6669C69.1727 41.6669 70.0637 40.7758 70.0637 39.6763C70.0637 38.5769 69.1727 37.6858 68.0732 37.6858C58.7806 37.6858 51.2208 30.1258 51.2208 20.8334C51.2208 11.5411 58.7809 3.98106 68.0732 3.98106C77.9957 3.98106 84.9256 10.3574 84.9256 19.4876C84.9256 26.8903 79.782 28.8838 76.7931 29.4172V11.4119C76.7931 10.3124 75.9021 9.42132 74.8026 9.42132C73.7031 9.42132 72.8121 10.3124 72.8121 11.4119V12.3903C71.4464 11.3652 69.8195 10.7671 68.0729 10.7671C63.2649 10.7671 59.353 15.2827 59.353 20.8332C59.353 26.3836 63.2649 30.8992 68.0729 30.8992C69.8198 30.8992 71.4466 30.3011 72.8121 29.276V31.6003C72.8121 32.6998 73.7031 33.5909 74.8026 33.5909C75.5381 33.5909 79.3884 33.4788 82.9236 31.2695C85.6529 29.5634 88.9064 26.1352 88.9064 19.4873C88.9066 8.19575 80.1448 0 68.0732 0ZM68.0732 26.9187C65.4599 26.9187 63.334 24.1889 63.334 20.8334C63.334 17.478 65.4602 14.7482 68.0732 14.7482C70.6862 14.7482 72.8123 17.478 72.8123 20.8334C72.8123 24.1889 70.6864 26.9187 68.0732 26.9187Z" fill="#EF5E43"/>
<path d="M29.5913 38.2167H8.35997C3.75036 38.2167 0 41.9671 0 46.5767V89.0395C0 93.6491 3.75036 97.3995 8.35997 97.3995H29.5915C34.2011 97.3995 37.9515 93.6491 37.9515 89.0395V46.5767C37.9512 41.9671 34.2009 38.2167 29.5913 38.2167ZM8.35997 42.1975H29.5915C31.2891 42.1975 32.7605 43.1704 33.487 44.5862H4.46446C5.19075 43.1704 6.66239 42.1975 8.35997 42.1975ZM33.9702 89.0395C33.9702 91.4541 32.0056 93.4184 29.5913 93.4184H8.35997C5.94537 93.4184 3.98106 91.4539 3.98106 89.0395V86.7836H33.9702V89.0395ZM33.9702 82.8028H3.9808V48.567H33.9702V82.8028Z" fill="#EF5E43"/>
<path d="M19.1085 88.1105H18.8431C17.7436 88.1105 16.8525 89.0015 16.8525 90.101C16.8525 91.2005 17.7436 92.0915 18.8431 92.0915H19.1085C20.208 92.0915 21.099 91.2005 21.099 90.101C21.099 89.0013 20.208 88.1105 19.1085 88.1105Z" fill="#EF5E43"/>
<path d="M80.9642 36.0553C80.434 35.8824 79.8963 35.7181 79.3663 35.568C78.3083 35.2687 77.2081 35.8826 76.9085 36.9403C76.6086 37.9979 77.2232 39.0982 78.2808 39.3981C78.7608 39.5342 79.2481 39.6825 79.7297 39.8396C79.9347 39.9066 80.1429 39.9384 80.3473 39.9384C81.1854 39.9384 81.9655 39.4047 82.2393 38.5648C82.5802 37.5198 82.0097 36.3962 80.9642 36.0553Z" fill="#EF5E43"/>
<path d="M91.7773 41.4055C90.6728 40.6456 89.5198 39.9304 88.3509 39.2804C87.3899 38.7462 86.1781 39.0921 85.6441 40.0528C85.1102 41.0135 85.4558 42.2256 86.4165 42.7595C87.4757 43.3484 88.5204 43.9962 89.5211 44.6849C89.8652 44.9225 90.2583 45.0361 90.6474 45.0361C91.2807 45.0361 91.9029 44.7347 92.2891 44.1737C92.912 43.2681 92.6829 42.0288 91.7773 41.4055Z" fill="#EF5E43"/>
<path d="M99.101 47.7939C98.7285 47.3854 98.3421 46.9778 97.9525 46.5823C97.1806 45.7991 95.9203 45.7903 95.1376 46.5619C94.3547 47.3338 94.3457 48.5938 95.1172 49.3767C95.4709 49.7359 95.8215 50.1057 96.159 50.476C96.5515 50.9067 97.0903 51.1254 97.6306 51.1254C98.1095 51.1254 98.5892 50.9541 98.9712 50.606C99.7833 49.8654 99.8413 48.6065 99.101 47.7939Z" fill="#EF5E43"/>
<path d="M45.3445 42.7307C44.6879 41.8489 43.4414 41.6653 42.5593 42.3217C42.1226 42.6467 41.6784 42.9908 41.2395 43.3446C40.3837 44.0346 40.2494 45.2875 40.9391 46.1436C41.3322 46.6315 41.9083 46.8847 42.4899 46.8847C42.9283 46.8847 43.3696 46.7406 43.7378 46.4439C44.1367 46.1226 44.5396 45.8101 44.9353 45.5158C45.8176 44.8595 46.0009 43.6127 45.3445 42.7307Z" fill="#EF5E43"/>
<path d="M52.677 38.842C52.2156 37.8442 51.0316 37.4093 50.0349 37.872C49.5319 38.1046 49.0265 38.3515 48.5314 38.605C47.5532 39.1066 47.1668 40.306 47.6685 41.2844C48.021 41.9715 48.7182 42.367 49.4413 42.367C49.7467 42.367 50.0571 42.296 50.3479 42.1471C50.7956 41.9177 51.253 41.6947 51.7073 41.4841C52.7051 41.0225 53.1392 39.8395 52.677 38.842Z" fill="#EF5E43"/>
<path d="M47.5572 108.873C47.131 108.607 46.7038 108.329 46.2879 108.047C45.3786 107.431 44.1406 107.667 43.5232 108.577C42.9057 109.486 43.1428 110.724 44.0524 111.341C44.5111 111.653 44.9821 111.959 45.4522 112.252C46.374 112.826 47.6208 112.535 48.1942 111.615C48.7754 110.682 48.4904 109.454 47.5572 108.873Z" fill="#EF5E43"/>
<path d="M42.8484 105.416C42.3017 104.947 41.7624 104.457 41.2449 103.96C40.4518 103.198 39.1924 103.224 38.4306 104.016C37.6688 104.809 37.6945 106.069 38.4867 106.831C39.0578 107.379 39.6535 107.92 40.2561 108.437C41.0796 109.144 42.3571 109.045 43.063 108.223C43.7789 107.389 43.6828 106.132 42.8484 105.416Z" fill="#EF5E43"/>
<path d="M38.294 100.789C37.972 100.401 37.6541 100.003 37.3495 99.6054C36.6807 98.7326 35.4313 98.5668 34.5588 99.2359C33.6863 99.9047 33.5207 101.154 34.1893 102.027C34.5251 102.465 34.8758 102.904 35.2313 103.332C35.9242 104.167 37.1998 104.285 38.0345 103.592C38.8805 102.89 38.9965 101.635 38.294 100.789Z" fill="#EF5E43"/>
<path d="M106.664 87.3596C105.623 87.0076 104.492 87.5652 104.14 88.6069C103.979 89.0842 103.805 89.5631 103.626 90.0304C103.233 91.057 103.746 92.2079 104.772 92.6015C105.785 92.9901 106.955 92.4683 107.343 91.4559C107.541 90.9394 107.732 90.4105 107.91 89.8831C108.263 88.8421 107.705 87.7122 106.664 87.3596Z" fill="#EF5E43"/>
<path d="M98.8783 102.107C98.0683 101.364 96.8091 101.418 96.0656 102.227C95.4179 102.933 94.7343 103.624 94.0348 104.28C93.233 105.032 93.1927 106.292 93.9444 107.094C94.6861 107.884 95.9668 107.925 96.7582 107.184C97.53 106.46 98.2836 105.698 98.9985 104.92C99.7417 104.11 99.688 102.851 98.8783 102.107Z" fill="#EF5E43"/>
<path d="M103.874 94.4986C102.919 93.954 101.703 94.288 101.16 95.244C100.686 96.077 100.174 96.9023 99.6385 97.697C99.0245 98.6089 99.2658 99.8459 100.178 100.46C101.078 101.066 102.335 100.82 102.94 99.9206C103.531 99.0436 104.096 98.1327 104.619 97.213C105.163 96.2576 104.83 95.0424 103.874 94.4986Z" fill="#EF5E43"/>
<path d="M92.3098 108.411C91.6858 107.506 90.4462 107.278 89.5416 107.901C89.1274 108.186 88.7025 108.468 88.2779 108.736C87.349 109.324 87.0725 110.553 87.6602 111.483C88.2401 112.399 89.4889 112.681 90.4067 112.1C90.8748 111.804 91.3436 111.494 91.8 111.18C92.7053 110.556 92.9334 109.316 92.3098 108.411Z" fill="#EF5E43"/>
</svg>
