<svg width="101" height="125" viewBox="0 0 101 125" fill="none" xmlns="http://www.w3.org/2000/svg">
<path d="M73.1438 121.331H3.66944V30.8215C3.66944 29.8081 2.8479 28.9868 1.83472 28.9868C0.821533 28.9868 0 29.8081 0 30.8215V121.942C0 123.628 1.37183 125 3.05786 125H73.1438C74.157 125 74.9783 124.179 74.9785 123.165C74.9785 122.152 74.157 121.331 73.1438 121.331Z" fill="#EF5E43"/>
<path d="M99.5339 16.5896L83.9392 0.555664C83.5937 0.200439 83.1194 0 82.624 0H3.05786C1.37183 0 0.000244141 1.37207 0 3.05811V17.3679C0 18.3813 0.821533 19.2026 1.83472 19.2026C2.8479 19.2026 3.66943 18.3813 3.66943 17.3679V3.66968H81.8491L96.3843 18.614V121.331H85.9863C84.9731 121.331 84.1516 122.152 84.1516 123.165C84.1516 124.179 84.9731 125 85.9863 125H96.9956C98.6819 125 100.053 123.628 100.053 121.942V17.8687C100.053 17.3909 99.8672 16.9321 99.5339 16.5896Z" fill="#EF5E43"/>
<path d="M99.5335 16.5897L83.9387 0.555725C83.418 0.0205685 82.625 -0.145935 81.9334 0.13507C81.2417 0.416076 80.7891 1.0882 80.7891 1.83502V17.8687C80.7891 18.8821 81.6106 19.7034 82.6238 19.7034H98.2185C98.9561 19.7034 99.6218 19.262 99.9085 18.5826C100.195 17.9034 100.048 17.118 99.5335 16.5897ZM84.4585 16.034V6.35236L93.8748 16.034H84.4585Z" fill="#EF5E43"/>
<path d="M58.5178 9.74103H14.3123C12.626 9.74103 11.2544 11.1129 11.2544 12.7989V22.9388C11.2544 24.6251 12.6262 25.9966 14.3123 25.9966H58.5178C60.2039 25.9966 61.5757 24.6248 61.5757 22.939V12.7986C61.5757 11.1124 60.2039 9.74103 58.5178 9.74103ZM57.9062 22.327H14.9238V13.4102H57.9062V22.327Z" fill="#EF5E43"/>
<path d="M29.5792 35.5983C28.7728 34.9858 27.6216 35.142 27.0084 35.9489L18.9022 46.6149L16.4676 44.4845C15.7051 43.8171 14.5462 43.8944 13.8787 44.6571C13.2115 45.4198 13.2889 46.5788 14.0513 47.246L17.9652 50.6706C18.3011 50.9643 18.731 51.1244 19.1732 51.1244C19.2347 51.1244 19.2965 51.1213 19.3585 51.1154C19.8643 51.0639 20.3265 50.8051 20.6341 50.4001L29.9298 38.1691C30.5428 37.3625 30.3858 36.2113 29.5792 35.5983Z" fill="#EF5E43"/>
<path d="M84.7944 35.2238H38.5852C37.572 35.2238 36.7505 36.045 36.7505 37.0585C36.7505 38.0719 37.572 38.8932 38.5852 38.8932H84.7944C85.8076 38.8932 86.6292 38.0719 86.6292 37.0585C86.6292 36.045 85.8076 35.2238 84.7944 35.2238Z" fill="#EF5E43"/>
<path d="M68.5864 41.3393H38.5852C37.572 41.3393 36.7505 42.1606 36.7505 43.174C36.7505 44.1874 37.572 45.0087 38.5852 45.0087H68.5864C69.5996 45.0087 70.4211 44.1874 70.4211 43.174C70.4211 42.1606 69.5996 41.3393 68.5864 41.3393Z" fill="#EF5E43"/>
<path d="M75.4358 47.4552H38.5852C37.572 47.4552 36.7505 48.2765 36.7505 49.2899C36.7505 50.3033 37.572 51.1246 38.5852 51.1246H75.4358C76.449 51.1246 77.2705 50.3033 77.2705 49.2899C77.2705 48.2765 76.449 47.4552 75.4358 47.4552Z" fill="#EF5E43"/>
<path d="M29.5792 60.5504C28.7728 59.9376 27.6216 60.0941 27.0084 60.901L18.9022 71.567L16.4676 69.4366C15.7051 68.7694 14.5462 68.8468 13.8787 69.6092C13.2115 70.3719 13.2889 71.5308 14.0513 72.1981L17.9652 75.6226C18.3011 75.9163 18.731 76.0765 19.1732 76.0765C19.2347 76.0765 19.2965 76.0733 19.3585 76.0675C19.8643 76.016 20.3265 75.7572 20.6341 75.3521L29.9298 63.1212C30.5428 62.3145 30.3858 61.1639 29.5792 60.5504Z" fill="#EF5E43"/>
<path d="M84.7944 60.176H38.5852C37.572 60.176 36.7505 60.9973 36.7505 62.0107C36.7505 63.0241 37.572 63.8454 38.5852 63.8454H84.7944C85.8076 63.8454 86.6292 63.0241 86.6292 62.0107C86.6292 60.9973 85.8076 60.176 84.7944 60.176Z" fill="#EF5E43"/>
<path d="M68.5864 66.2915H38.5852C37.572 66.2915 36.7505 67.1128 36.7505 68.1262C36.7505 69.1396 37.572 69.9609 38.5852 69.9609H68.5864C69.5996 69.9609 70.4211 69.1396 70.4211 68.1262C70.4211 67.1128 69.5996 66.2915 68.5864 66.2915Z" fill="#EF5E43"/>
<path d="M75.4358 72.4069H38.5852C37.572 72.4069 36.7505 73.2281 36.7505 74.2416C36.7505 75.255 37.572 76.0763 38.5852 76.0763H75.4358C76.449 76.0763 77.2705 75.255 77.2705 74.2416C77.2705 73.2281 76.449 72.4069 75.4358 72.4069Z" fill="#EF5E43"/>
<path d="M84.7944 85.1281H38.5852C37.572 85.1281 36.7505 85.9493 36.7505 86.9628C36.7505 87.9762 37.572 88.7975 38.5852 88.7975H84.7944C85.8076 88.7975 86.6289 87.9762 86.6292 86.9628C86.6292 85.9493 85.8076 85.1281 84.7944 85.1281Z" fill="#EF5E43"/>
<path d="M68.5864 91.2437H38.5852C37.572 91.2437 36.7505 92.0649 36.7505 93.0784C36.7505 94.0918 37.572 94.9131 38.5852 94.9131H68.5864C69.5996 94.9131 70.4211 94.0918 70.4211 93.0784C70.4211 92.0649 69.5996 91.2437 68.5864 91.2437Z" fill="#EF5E43"/>
<path d="M75.4358 97.3592H38.5852C37.572 97.3592 36.7505 98.1805 36.7505 99.1939C36.7505 100.207 37.572 101.029 38.5852 101.029H75.4358C76.449 101.029 77.2705 100.207 77.2705 99.1939C77.2705 98.1805 76.449 97.3592 75.4358 97.3592Z" fill="#EF5E43"/>
<path d="M26.2671 85.1281H16.4822C14.7959 85.1281 13.4243 86.4999 13.4243 88.1859V97.9706C13.4243 99.6569 14.7961 101.028 16.4822 101.028H26.2671C27.9534 101.028 29.3249 99.6569 29.3249 97.9708V88.1859C29.3249 86.4996 27.9531 85.1281 26.2671 85.1281ZM25.6558 97.3592H17.094V88.7975H25.6558V97.3592Z" fill="#EF5E43"/>
</svg>
