<svg width="133" height="44" viewBox="0 0 133 44" fill="none" xmlns="http://www.w3.org/2000/svg">
<path d="M43.296 5.256H47.508C48.528 5.256 49.494 5.37 50.406 5.598C51.33 5.826 52.134 6.198 52.818 6.714C53.502 7.218 54.042 7.878 54.438 8.694C54.846 9.51 55.05 10.5 55.05 11.664C55.05 12.696 54.852 13.608 54.456 14.4C54.072 15.18 53.55 15.84 52.89 16.38C52.23 16.908 51.468 17.31 50.604 17.586C49.74 17.862 48.834 18 47.886 18H43.296V5.256ZM46.104 15.408H47.562C48.21 15.408 48.81 15.342 49.362 15.21C49.926 15.078 50.412 14.862 50.82 14.562C51.228 14.25 51.546 13.848 51.774 13.356C52.014 12.852 52.134 12.24 52.134 11.52C52.134 10.896 52.014 10.356 51.774 9.9C51.546 9.432 51.234 9.048 50.838 8.748C50.442 8.448 49.974 8.226 49.434 8.082C48.906 7.926 48.348 7.848 47.76 7.848H46.104V15.408ZM59.9782 5.256H62.7862V18H59.9782V5.256ZM79.9384 17.1C79.1104 17.532 78.2464 17.844 77.3464 18.036C76.4464 18.228 75.5284 18.324 74.5924 18.324C73.5964 18.324 72.6784 18.168 71.8384 17.856C70.9984 17.544 70.2724 17.1 69.6604 16.524C69.0484 15.936 68.5684 15.228 68.2204 14.4C67.8844 13.572 67.7164 12.648 67.7164 11.628C67.7164 10.608 67.8844 9.684 68.2204 8.856C68.5684 8.028 69.0484 7.326 69.6604 6.75C70.2724 6.162 70.9984 5.712 71.8384 5.4C72.6784 5.088 73.5964 4.932 74.5924 4.932C75.6124 4.932 76.5484 5.058 77.4004 5.31C78.2644 5.55 79.0204 5.97 79.6684 6.57L77.6884 8.73C77.3044 8.334 76.8724 8.034 76.3924 7.83C75.9124 7.626 75.3124 7.524 74.5924 7.524C73.9924 7.524 73.4464 7.626 72.9544 7.83C72.4744 8.034 72.0604 8.322 71.7124 8.694C71.3644 9.054 71.0944 9.486 70.9024 9.99C70.7224 10.494 70.6324 11.04 70.6324 11.628C70.6324 12.228 70.7224 12.78 70.9024 13.284C71.0944 13.776 71.3644 14.208 71.7124 14.58C72.0604 14.94 72.4744 15.222 72.9544 15.426C73.4464 15.63 73.9924 15.732 74.5924 15.732C75.2044 15.732 75.7324 15.666 76.1764 15.534C76.6204 15.39 76.9744 15.246 77.2384 15.102V13.032H74.9524V10.44H79.9384V17.1ZM85.4341 5.256H88.2421V18H85.4341V5.256ZM96.3223 7.74H92.6863V5.256H102.766V7.74H99.1303V18H96.3223V7.74ZM109.794 5.256H112.116L117.66 18H114.492L113.394 15.3H108.444L107.382 18H104.286L109.794 5.256ZM110.874 8.964L109.326 12.924H112.44L110.874 8.964ZM122.11 5.256H124.918V15.408H130.12V18H122.11V5.256Z" fill="white"/>
<path d="M49.596 27.37C49.368 27.082 49.056 26.872 48.66 26.74C48.276 26.596 47.91 26.524 47.562 26.524C47.358 26.524 47.148 26.548 46.932 26.596C46.716 26.644 46.512 26.722 46.32 26.83C46.128 26.926 45.972 27.058 45.852 27.226C45.732 27.394 45.672 27.598 45.672 27.838C45.672 28.222 45.816 28.516 46.104 28.72C46.392 28.924 46.752 29.098 47.184 29.242C47.628 29.386 48.102 29.53 48.606 29.674C49.11 29.818 49.578 30.022 50.01 30.286C50.454 30.55 50.82 30.904 51.108 31.348C51.396 31.792 51.54 32.386 51.54 33.13C51.54 33.838 51.408 34.456 51.144 34.984C50.88 35.512 50.52 35.95 50.064 36.298C49.62 36.646 49.098 36.904 48.498 37.072C47.91 37.24 47.286 37.324 46.626 37.324C45.798 37.324 45.03 37.198 44.322 36.946C43.614 36.694 42.954 36.286 42.342 35.722L44.34 33.526C44.628 33.91 44.988 34.21 45.42 34.426C45.864 34.63 46.32 34.732 46.788 34.732C47.016 34.732 47.244 34.708 47.472 34.66C47.712 34.6 47.922 34.516 48.102 34.408C48.294 34.3 48.444 34.162 48.552 33.994C48.672 33.826 48.732 33.628 48.732 33.4C48.732 33.016 48.582 32.716 48.282 32.5C47.994 32.272 47.628 32.08 47.184 31.924C46.74 31.768 46.26 31.612 45.744 31.456C45.228 31.3 44.748 31.09 44.304 30.826C43.86 30.562 43.488 30.214 43.188 29.782C42.9 29.35 42.756 28.78 42.756 28.072C42.756 27.388 42.888 26.788 43.152 26.272C43.428 25.756 43.788 25.324 44.232 24.976C44.688 24.628 45.21 24.37 45.798 24.202C46.386 24.022 46.992 23.932 47.616 23.932C48.336 23.932 49.032 24.034 49.704 24.238C50.376 24.442 50.982 24.784 51.522 25.264L49.596 27.37ZM60.5079 26.74H56.8719V24.256H66.9519V26.74H63.3159V37H60.5079V26.74ZM83.5339 32.086C83.5339 32.842 83.4199 33.538 83.1919 34.174C82.9639 34.81 82.6219 35.362 82.1659 35.83C81.7219 36.298 81.1639 36.664 80.4919 36.928C79.8199 37.192 79.0459 37.324 78.1699 37.324C77.2819 37.324 76.5019 37.192 75.8299 36.928C75.1579 36.664 74.5939 36.298 74.1379 35.83C73.6939 35.362 73.3579 34.81 73.1299 34.174C72.9019 33.538 72.7879 32.842 72.7879 32.086V24.256H75.5959V31.978C75.5959 32.374 75.6559 32.74 75.7759 33.076C75.9079 33.412 76.0879 33.706 76.3159 33.958C76.5439 34.198 76.8139 34.39 77.1259 34.534C77.4499 34.666 77.7979 34.732 78.1699 34.732C78.5419 34.732 78.8839 34.666 79.1959 34.534C79.5079 34.39 79.7779 34.198 80.0059 33.958C80.2339 33.706 80.4079 33.412 80.5279 33.076C80.6599 32.74 80.7259 32.374 80.7259 31.978V24.256H83.5339V32.086ZM90.5397 24.256H94.7517C95.7717 24.256 96.7377 24.37 97.6497 24.598C98.5737 24.826 99.3777 25.198 100.062 25.714C100.746 26.218 101.286 26.878 101.682 27.694C102.09 28.51 102.294 29.5 102.294 30.664C102.294 31.696 102.096 32.608 101.7 33.4C101.316 34.18 100.794 34.84 100.134 35.38C99.4737 35.908 98.7117 36.31 97.8477 36.586C96.9837 36.862 96.0777 37 95.1297 37H90.5397V24.256ZM93.3477 34.408H94.8057C95.4537 34.408 96.0537 34.342 96.6057 34.21C97.1697 34.078 97.6557 33.862 98.0637 33.562C98.4717 33.25 98.7897 32.848 99.0177 32.356C99.2577 31.852 99.3777 31.24 99.3777 30.52C99.3777 29.896 99.2577 29.356 99.0177 28.9C98.7897 28.432 98.4777 28.048 98.0817 27.748C97.6857 27.448 97.2177 27.226 96.6777 27.082C96.1497 26.926 95.5917 26.848 95.0037 26.848H93.3477V34.408ZM108.572 24.256H111.38V37H108.572V24.256ZM117.66 30.628C117.66 29.608 117.828 28.684 118.164 27.856C118.512 27.028 118.992 26.326 119.604 25.75C120.216 25.162 120.942 24.712 121.782 24.4C122.622 24.088 123.54 23.932 124.536 23.932C125.532 23.932 126.45 24.088 127.29 24.4C128.13 24.712 128.856 25.162 129.468 25.75C130.08 26.326 130.554 27.028 130.89 27.856C131.238 28.684 131.412 29.608 131.412 30.628C131.412 31.648 131.238 32.572 130.89 33.4C130.554 34.228 130.08 34.936 129.468 35.524C128.856 36.1 128.13 36.544 127.29 36.856C126.45 37.168 125.532 37.324 124.536 37.324C123.54 37.324 122.622 37.168 121.782 36.856C120.942 36.544 120.216 36.1 119.604 35.524C118.992 34.936 118.512 34.228 118.164 33.4C117.828 32.572 117.66 31.648 117.66 30.628ZM120.576 30.628C120.576 31.228 120.666 31.78 120.846 32.284C121.038 32.776 121.308 33.208 121.656 33.58C122.004 33.94 122.418 34.222 122.898 34.426C123.39 34.63 123.936 34.732 124.536 34.732C125.136 34.732 125.676 34.63 126.156 34.426C126.648 34.222 127.068 33.94 127.416 33.58C127.764 33.208 128.028 32.776 128.208 32.284C128.4 31.78 128.496 31.228 128.496 30.628C128.496 30.04 128.4 29.494 128.208 28.99C128.028 28.486 127.764 28.054 127.416 27.694C127.068 27.322 126.648 27.034 126.156 26.83C125.676 26.626 125.136 26.524 124.536 26.524C123.936 26.524 123.39 26.626 122.898 26.83C122.418 27.034 122.004 27.322 121.656 27.694C121.308 28.054 121.038 28.486 120.846 28.99C120.666 29.494 120.576 30.04 120.576 30.628Z" fill="white"/>
<path d="M23.3539 29.4538L5.9231 38.1692L21.2385 24.1231L17.9385 16.5923L20.8154 11.0923L33 38.1692H27.5846L23.3539 29.4538Z" fill="#FD633D"/>
<path d="M4.4 38.1692H0L17.9385 5L20.3077 9.48462L4.4 38.1692Z" fill="white"/>
</svg>
