<svg width="1818" height="1478" viewBox="0 0 1818 1478" fill="none" xmlns="http://www.w3.org/2000/svg">
<path d="M909 1245C1188.46 1245 1415 1018.46 1415 739C1415 459.544 1188.46 233 909 233C629.544 233 403 459.544 403 739C403 1018.46 629.544 1245 909 1245Z" fill="#F2F2F2"/>
<path d="M904 1241C1183.46 1241 1410 1014.46 1410 735C1410 455.544 1183.46 229 904 229C624.544 229 398 455.544 398 735C398 1014.46 624.544 1241 904 1241Z" fill="#F2F2F2"/>
<path d="M942 865H876V1241H942V865Z" fill="#FD633D"/>
<path d="M1281 359H530V806H1281V359Z" fill="white" stroke="#26303C" stroke-width="30"/>
<path d="M546 601L675 374H546V601Z" fill="#C4C4C4"/>
<path d="M1247.5 851.5H570.5V868.5H1247.5V851.5Z" fill="#26303C" stroke="#26303C" stroke-width="7"/>
<path d="M1252 264H566V274H1252V264Z" fill="#26303C"/>
<path d="M734 818H718V858H734V818Z" fill="#26303C" stroke="#26303C" stroke-width="6"/>
<path d="M1099 818H1083V858H1099V818Z" fill="#26303C" stroke="#26303C" stroke-width="6"/>
<path d="M1252 264H1242V344H1252V264Z" fill="#26303C"/>
<path d="M576 264H566V344H576V264Z" fill="#26303C"/>
<path d="M1018.5 524L928 374H1109L1018.5 524Z" fill="#C4C4C4"/>
<path d="M801.5 524L711 374H892L801.5 524Z" fill="#C4C4C4"/>
<path d="M1266 611.5L1133.5 374.5H1266V611.5Z" fill="#C4C4C4"/>
<path d="M731.45 678C730.837 678 730.262 677.77 729.725 677.31C729.265 676.773 729.035 676.198 729.035 675.585C729.035 675.125 729.073 674.78 729.15 674.55L756.175 600.72C756.405 599.8 756.903 599.033 757.67 598.42C758.437 597.807 759.433 597.5 760.66 597.5H777.68C778.907 597.5 779.903 597.807 780.67 598.42C781.437 599.033 781.935 599.8 782.165 600.72L809.075 674.55L809.305 675.585C809.305 676.198 809.037 676.773 808.5 677.31C808.04 677.77 807.465 678 806.775 678H792.63C790.79 678 789.563 677.195 788.95 675.585L784.465 663.855H753.76L749.39 675.585C748.777 677.195 747.512 678 745.595 678H731.45ZM779.865 647.295L769.17 616.935L758.475 647.295H779.865ZM817.616 651.78C816.772 651.78 816.082 651.512 815.546 650.975C815.009 650.438 814.741 649.748 814.741 648.905V638.095C814.741 637.252 815.009 636.562 815.546 636.025C816.082 635.488 816.772 635.22 817.616 635.22H853.611C854.454 635.22 855.144 635.488 855.681 636.025C856.294 636.562 856.601 637.252 856.601 638.095V648.905C856.601 649.748 856.294 650.438 855.681 650.975C855.144 651.512 854.454 651.78 853.611 651.78H817.616ZM884.887 678C884.12 678 883.43 677.732 882.817 677.195C882.28 676.582 882.012 675.892 882.012 675.125V615.555H861.542C860.775 615.555 860.085 615.287 859.472 614.75C858.935 614.137 858.667 613.447 858.667 612.68V600.375C858.667 599.532 858.935 598.842 859.472 598.305C860.085 597.768 860.775 597.5 861.542 597.5H923.412C924.255 597.5 924.945 597.768 925.482 598.305C926.019 598.842 926.287 599.532 926.287 600.375V612.68C926.287 613.523 926.019 614.213 925.482 614.75C924.945 615.287 924.255 615.555 923.412 615.555H902.942V675.125C902.942 675.892 902.674 676.582 902.137 677.195C901.6 677.732 900.91 678 900.067 678H884.887ZM939.613 678C938.847 678 938.157 677.732 937.543 677.195C937.007 676.582 936.738 675.892 936.738 675.125V600.375C936.738 599.532 937.007 598.842 937.543 598.305C938.157 597.768 938.847 597.5 939.613 597.5H993.318C994.162 597.5 994.852 597.768 995.388 598.305C995.925 598.842 996.193 599.532 996.193 600.375V611.185C996.193 611.952 995.925 612.642 995.388 613.255C994.852 613.792 994.162 614.06 993.318 614.06H956.633V629.585H990.788C991.632 629.585 992.322 629.892 992.858 630.505C993.395 631.042 993.663 631.732 993.663 632.575V642.58C993.663 643.347 993.395 644.037 992.858 644.65C992.322 645.187 991.632 645.455 990.788 645.455H956.633V661.44H994.238C995.082 661.44 995.772 661.708 996.308 662.245C996.845 662.782 997.113 663.472 997.113 664.315V675.125C997.113 675.892 996.845 676.582 996.308 677.195C995.772 677.732 995.082 678 994.238 678H939.613ZM1013.06 678C1012.29 678 1011.6 677.732 1010.99 677.195C1010.45 676.582 1010.19 675.892 1010.19 675.125V600.375C1010.19 599.532 1010.45 598.842 1010.99 598.305C1011.6 597.768 1012.29 597.5 1013.06 597.5H1027.55C1028.39 597.5 1029.08 597.768 1029.62 598.305C1030.16 598.842 1030.43 599.532 1030.43 600.375V625.905L1051.7 599.685C1052.62 598.228 1054.12 597.5 1056.19 597.5H1072.75C1073.44 597.5 1074.01 597.768 1074.47 598.305C1074.93 598.765 1075.16 599.302 1075.16 599.915C1075.16 600.452 1075.05 600.912 1074.82 601.295L1047.22 636.025L1076.89 674.205C1077.19 674.512 1077.35 674.972 1077.35 675.585C1077.35 676.198 1077.12 676.773 1076.66 677.31C1076.2 677.77 1075.62 678 1074.93 678H1057.8C1055.96 678 1054.42 677.233 1053.2 675.7L1030.43 647.295V675.125C1030.43 675.968 1030.16 676.658 1029.62 677.195C1029.08 677.732 1028.39 678 1027.55 678H1013.06Z" fill="#F15623"/>
<path d="M1131 643H1112V662H1131V643Z" fill="#26303C"/>
<path d="M704 643H685V662H704V643Z" fill="#26303C"/>
<path d="M694 330L734.703 400.5H653.297L694 330Z" fill="#26303C"/>
<path d="M909 330L949.703 400.5H868.297L909 330Z" fill="#26303C"/>
<path d="M1124 330L1164.7 400.5H1083.3L1124 330Z" fill="#26303C"/>
<path d="M699 274H689V304H699V274Z" fill="#26303C"/>
<path d="M753 304H635V359H753V304Z" fill="#5C6B7C"/>
<path d="M968 304H850V359H968V304Z" fill="#5C6B7C"/>
<path d="M914 274H904V304H914V274Z" fill="#26303C"/>
<path d="M1183 304H1065V359H1183V304Z" fill="#5C6B7C"/>
<path d="M1129 274H1119V304H1129V274Z" fill="#26303C"/>
</svg>
