<svg width="1818" height="1478" viewBox="0 0 1818 1478" fill="none" xmlns="http://www.w3.org/2000/svg">
<rect x="421" y="1046.02" width="977" height="53" rx="20" fill="#E6E4E5"/>
<rect x="421" y="1022.02" width="977" height="48" fill="#E6E4E5"/>
<rect x="421" y="375.017" width="977" height="638" fill="#031033"/>
<rect x="421" y="363.017" width="977" height="39" rx="19.5" fill="#222E3E"/>
<rect x="458" y="402" width="911" height="575" rx="10" fill="white"/>
<rect x="647" y="250" width="514" height="727" fill="#F2F2F2"/>
<rect x="650" y="250" width="514" height="55" fill="#242D3C"/>
<path d="M806.772 1088.02H1012.69L1048 1248.02H772L806.772 1088.02Z" fill="#E6E4E5"/>
<path d="M804 1099.02H1026.89L1048 1248.02L931 1174.02L804 1099.02Z" fill="#D2D0D1"/>
<path d="M673 1242.07H1146C1148.72 1242.07 1150.9 1243.99 1152.63 1246.89C1154.36 1249.79 1155.64 1253.66 1156.58 1257.53C1157.51 1261.4 1158.11 1265.27 1158.47 1268.18C1158.65 1269.63 1158.77 1270.84 1158.84 1271.69C1158.88 1272.11 1158.91 1272.45 1158.92 1272.67C1158.93 1272.79 1158.94 1272.87 1158.94 1272.93L1158.95 1272.97H662.05L662.05 1272.93C662.051 1272.87 662.051 1272.78 662.053 1272.67C662.055 1272.44 662.061 1272.11 662.071 1271.69C662.093 1270.84 662.136 1269.63 662.222 1268.18C662.394 1265.27 662.737 1261.4 663.424 1257.53C664.111 1253.65 665.142 1249.78 666.685 1246.88C668.229 1243.98 670.278 1242.07 673 1242.07Z" fill="#E6E4E5" stroke="black" stroke-width="0.1"/>
<circle cx="687.5" cy="277.5" r="9.5" fill="#C4C4C4"/>
<circle cx="725.5" cy="277.5" r="9.5" fill="#C4C4C4"/>
<circle cx="763.5" cy="277.5" r="9.5" fill="#C4C4C4"/>
<circle cx="418" cy="216" r="49" fill="#C4C4C4"/>
<circle cx="514" cy="303" r="24" fill="#F15525"/>
<circle cx="1449" cy="589" r="24" fill="#F15525"/>
<circle cx="294" cy="498" r="24" fill="#26303C"/>
<circle cx="1040" cy="373" r="2" fill="#C4C4C4"/>
<circle cx="1084.5" cy="382.5" r="19.5" fill="#C4C4C4"/>
<circle cx="1038.5" cy="471.5" r="12.5" fill="#24303F"/>
<circle cx="786.5" cy="440.5" r="51.5" fill="#C4C4C4"/>
<path d="M768.204 369.386L785.524 439.007L725.455 399.203C736.644 378.529 746.189 372.297 768.204 369.386Z" fill="#252E3D"/>
<path d="M523.5 781L681 613.5L742.5 682.5L795.5 637.5L819.5 682.5L943.5 594L979 627.5L1012.5 613.5L1032.5 637.5L1131 562.5L1172.5 594L1255 521M1255 521H1206M1255 521V562.5" stroke="black" stroke-width="15"/>
<path d="M802.249 498.833C809.99 496.453 817.094 492.449 823.156 487.05C829.219 481.65 834.121 474.961 837.583 467.363L802.788 447.688C801.44 450.648 799.53 453.253 797.169 455.356C794.807 457.46 792.04 459.019 789.025 459.946L802.249 498.833Z" fill="#21D8DE"/>
<path d="M852.401 407.996L802.684 433.943C804.864 440.132 804.269 443.358 801.748 448.914L847.907 479.856C861.069 453.77 863.538 438.293 852.401 407.996Z" fill="#05AEB3"/>
<path d="M647 926.5L671 918.5L699 880L713.5 900.5L739 915.807L808 834.738L860 876.58L902.5 849.383L945 834.738L995 765.7L1030 810.157L1075 792.897L1125 693L1161 738.503V977H647V926.5Z" fill="#F15525"/>
</svg>
