<svg width="146" height="100" viewBox="0 0 146 100" fill="none" xmlns="http://www.w3.org/2000/svg">
<path d="M111.435 26.8607H33.8726C31.4895 26.8607 29.5576 28.7926 29.5576 31.1757V78.2092C29.5576 80.5923 31.4895 82.5242 33.8726 82.5242H111.435C113.818 82.5242 115.75 80.5923 115.75 78.2092V31.1757C115.75 28.7926 113.818 26.8607 111.435 26.8607Z" fill="#242E3B"/>
<path d="M110.356 29.342H34.9515C33.4621 29.342 32.2546 30.5495 32.2546 32.0389V79.8275C32.2546 81.317 33.4621 82.5244 34.9515 82.5244H110.356C111.845 82.5244 113.053 81.317 113.053 79.8275V32.0389C113.053 30.5495 111.845 29.342 110.356 29.342Z" fill="#021130"/>
<path d="M42.9972 57.9712L42.8555 51.9783L47.0751 53.5861L42.9972 57.9712Z" fill="#F15623"/>
<path d="M94.4984 14.8867H50.7012V77.0226H94.4984V14.8867Z" fill="#E2E2E2"/>
<path d="M122.654 79.9353H22.6536C21.462 79.9353 20.4961 80.9012 20.4961 82.0928V82.8568C20.4961 84.0484 21.462 85.0143 22.6536 85.0143H122.654C123.845 85.0143 124.811 84.0484 124.811 82.8568V82.0928C124.811 80.9012 123.845 79.9353 122.654 79.9353Z" fill="#959595"/>
<path d="M124.811 79.9353H20.4961V81.5534H124.811V79.9353Z" fill="#EAEAEA"/>
<path d="M113.484 77.0226H32.0388V79.9352H113.484V77.0226Z" fill="#242E3B"/>
<path d="M59.2169 23.2823C59.4828 23.4484 59.7236 23.651 59.9322 23.8833L60.6845 23.4489L61.3695 24.6353L60.6188 25.0687C60.7141 25.3602 60.7703 25.6692 60.7808 25.9896L61.6349 26.1402L61.397 27.4893L60.543 27.3387C60.425 27.6312 60.2667 27.9031 60.0748 28.1476L60.6329 28.8127L59.5835 29.6932L59.0258 29.0286C58.7534 29.1746 58.4584 29.2837 58.1475 29.3492V30.216H56.7777V29.3492C56.4667 29.2837 56.1717 29.1746 55.8992 29.0286L55.3416 29.6932L54.2922 28.8127L54.8504 28.1476C54.6584 27.9031 54.5 27.6312 54.382 27.3387L53.5281 27.4893L53.2903 26.1402L54.1442 25.9896C54.1548 25.6691 54.2109 25.3602 54.3064 25.0686L53.5555 24.6353L54.2406 23.4489L54.9928 23.8832C55.2014 23.651 55.4422 23.4483 55.7081 23.2823L55.4111 22.4665L56.6985 21.998L56.995 22.8127C57.1478 22.791 57.3039 22.7796 57.4626 22.7796C57.6212 22.7796 57.7773 22.791 57.9302 22.8127L58.2266 21.998L59.5139 22.4665L59.2169 23.2823ZM57.4625 24.3506C56.4978 24.3506 55.713 25.1354 55.713 26.1C55.713 27.0646 56.4978 27.8494 57.4625 27.8494C58.4271 27.8494 59.2119 27.0646 59.2119 26.1C59.2119 25.1354 58.4272 24.3506 57.4625 24.3506Z" fill="black"/>
<path d="M65.1051 22.2536L64.5146 22.0626C64.4019 22.2583 64.2628 22.4355 64.1025 22.5898L64.4326 23.1164L63.6016 23.637L63.2717 23.1108C63.0643 23.1874 62.8444 23.2356 62.6175 23.2512L62.5318 23.8658L61.5606 23.7304L61.6462 23.1159C61.4323 23.0388 61.2339 22.9321 61.0551 22.8018L60.5942 23.2179L59.9371 22.49L60.3985 22.0734C60.2866 21.8812 60.2013 21.6727 60.1465 21.4536L59.5262 21.4761L59.4907 20.4962L60.111 20.4737C60.1502 20.2476 60.2206 20.0341 60.317 19.8368L59.8276 19.4552L60.4304 18.6819L60.9208 19.0641C61.0917 18.9201 61.2825 18.8003 61.4874 18.7087L61.3573 18.101L62.3163 17.8961L62.4462 18.5029C62.5566 18.5026 62.6684 18.5101 62.7808 18.5258C62.8934 18.5414 63.0029 18.5651 63.1091 18.5954L63.3999 18.047L64.2662 18.5065L63.9751 19.0555C64.1472 19.1995 64.2978 19.367 64.4229 19.5522L64.999 19.3186L65.3675 20.2273L64.7925 20.4605C64.8312 20.6765 64.8405 20.9012 64.8164 21.1296L65.4071 21.3207L65.1051 22.2536ZM62.6258 19.6395C61.9417 19.5443 61.3078 20.0231 61.2125 20.707C61.1172 21.391 61.5961 22.025 62.28 22.1203C62.964 22.2156 63.5978 21.7367 63.6933 21.0528C63.7885 20.3688 63.3097 19.735 62.6258 19.6395Z" fill="black"/>
<path d="M66.4279 25.652L66.4509 26.4259L65.9611 26.4404C65.9305 26.611 65.8756 26.7798 65.7951 26.9422L66.1797 27.246L65.6999 27.8534L65.3154 27.5496C65.1782 27.6636 65.0265 27.7565 64.8656 27.8266L64.9649 28.3071L64.207 28.4641L64.1074 27.9839C63.9328 27.9837 63.7569 27.9589 63.5845 27.9082L63.3524 28.3395L62.6707 27.9724L62.9029 27.541C62.7659 27.4251 62.6482 27.2917 62.5517 27.1461L62.0963 27.3275L61.8101 26.6082L62.2659 26.4266C62.2359 26.2536 62.2301 26.076 62.2498 25.8988L61.7844 25.7448L62.0274 25.0099L62.4927 25.1637C62.5838 25.007 62.6946 24.8685 62.8202 24.7489L62.563 24.332L63.2215 23.9253L63.4795 24.3429C63.6455 24.2834 63.8197 24.2471 63.9964 24.2357L64.0672 23.7501L64.8333 23.862L64.7626 24.3469C64.8444 24.377 64.9251 24.4132 65.0041 24.4557C65.0831 24.4982 65.1578 24.5458 65.2279 24.5975L65.5938 24.2716L66.1087 24.8496L65.7425 25.1759C65.8303 25.3298 65.8956 25.4952 65.9374 25.6666L66.4279 25.652ZM64.5832 25.2374C64.1031 24.9789 63.5023 25.1591 63.244 25.639C62.9854 26.119 63.1655 26.7199 63.6457 26.9783C64.1255 27.2369 64.7264 27.0565 64.985 26.5766C65.2432 26.0965 65.0632 25.4959 64.5832 25.2374Z" fill="black"/>
<path d="M90.2912 18.2308H69.2556V19.6332H90.2912V18.2308Z" fill="#C4C4C4"/>
<path d="M90.2912 21.4672H69.2556V22.8695H90.2912V21.4672Z" fill="#C4C4C4"/>
<path d="M90.2912 24.7034H69.2556V26.1057H90.2912V24.7034Z" fill="#C4C4C4"/>
<path d="M90.2912 27.9395H69.2556V29.3418H90.2912V27.9395Z" fill="#C4C4C4"/>
<path d="M90.2912 31.1758H69.2556V32.5782H90.2912V31.1758Z" fill="#C4C4C4"/>
<path d="M84.1423 34.412H55.8792V35.8144H84.1423V34.412Z" fill="#C4C4C4"/>
<path d="M82.8478 37.6483H55.8792V39.0507H82.8478V37.6483Z" fill="#C4C4C4"/>
<path d="M81.877 40.8844H55.8792V42.2868H81.877V40.8844Z" fill="#C4C4C4"/>
<path d="M81.877 44.1207H55.8792V45.5231H81.877V44.1207Z" fill="#C4C4C4"/>
<path d="M81.877 47.3572H55.8792V48.7595H81.877V47.3572Z" fill="#C4C4C4"/>
<path d="M81.877 50.5935H55.8792V51.9959H81.877V50.5935Z" fill="#C4C4C4"/>
<path d="M81.877 53.8296H55.8792V55.232H81.877V53.8296Z" fill="#C4C4C4"/>
<path d="M81.877 57.0659H55.8792V58.4683H81.877V57.0659Z" fill="#C4C4C4"/>
<path d="M81.877 60.3021H55.8792V61.7045H81.877V60.3021Z" fill="#C4C4C4"/>
<path d="M81.877 63.5382H55.8792V64.9406H81.877V63.5382Z" fill="#C4C4C4"/>
<path d="M81.877 66.7747H55.8792V68.177H81.877V66.7747Z" fill="#C4C4C4"/>
<path d="M81.877 70.0106H55.8792V71.413H81.877V70.0106Z" fill="#C4C4C4"/>
<path d="M81.877 73.2469H55.8792V74.6493H81.877V73.2469Z" fill="#C4C4C4"/>
<path d="M88.2955 33.9805L91.8923 40.3721H84.6987L88.2955 33.9805Z" fill="white"/>
<path d="M88.2955 33.9805L91.8923 40.3721H84.6987L88.2955 33.9805Z" fill="white"/>
<path d="M88.2955 33.9805L91.8923 40.3721H84.6987L88.2955 33.9805Z" fill="white"/>
<path d="M42.9972 57.9712L42.8555 51.9783L47.0751 53.5861L42.9972 57.9712Z" stroke="black"/>
<path d="M91.8988 40.3561H84.6926V76.3647H91.8988V40.3561Z" fill="#F15623" stroke="black" stroke-width="0.2"/>
<path d="M88.2954 33.9805L89.1829 35.5986H87.408L88.2954 33.9805Z" fill="black"/>
<path d="M61.846 42.2869H40.561V54.4782H61.846V42.2869Z" stroke="black"/>
<path d="M61.846 42.2869H40.561V54.4782H61.846V42.2869Z" fill="#F15623"/>
<path d="M60.1943 44.8761H42.2871C42.2275 44.8761 42.1792 44.9244 42.1792 44.984V45.847C42.1792 45.9066 42.2275 45.9548 42.2871 45.9548H60.1943C60.2539 45.9548 60.3022 45.9066 60.3022 45.847V44.984C60.3022 44.9244 60.2539 44.8761 60.1943 44.8761Z" fill="white"/>
<path d="M55.4478 47.5729H42.2871C42.2275 47.5729 42.1792 47.6212 42.1792 47.6808V48.4359C42.1792 48.4955 42.2275 48.5438 42.2871 48.5438H55.4478C55.5074 48.5438 55.5557 48.4955 55.5557 48.4359V47.6808C55.5557 47.6212 55.5074 47.5729 55.4478 47.5729Z" fill="white"/>
<path d="M50.2698 50.1617H42.2871C42.2275 50.1617 42.1792 50.21 42.1792 50.2696V50.9168C42.1792 50.9764 42.2275 51.0247 42.2871 51.0247H50.2698C50.3294 51.0247 50.3777 50.9764 50.3777 50.9168V50.2696C50.3777 50.21 50.3294 50.1617 50.2698 50.1617Z" fill="white"/>
<path d="M118.231 21.7908H103.236V36.7854H118.231V21.7908Z" fill="#E2E2E2"/>
<path d="M107.227 28.3712H105.394V30.2051H107.227V28.3712Z" fill="black"/>
<path d="M111.651 28.3712H109.817V30.2051H111.651V28.3712Z" fill="black"/>
<path d="M116.073 28.3712H114.24V30.2051H116.073V28.3712Z" fill="black"/>
</svg>
