<svg width="171" height="130" viewBox="0 0 171 130" fill="none" xmlns="http://www.w3.org/2000/svg">
<path d="M21.527 54.7905L21.2561 43.3346L29.3221 46.4082L21.527 54.7905Z" stroke="black"/>
<path d="M125.41 25.5535H116.727V40.4389H125.41V25.5535Z" fill="#BABABA"/>
<path d="M125.41 41.0592H116.727C116.385 41.0592 116.107 40.7815 116.107 40.4389V25.5535C116.107 25.2109 116.385 24.9332 116.727 24.9332H125.41C125.752 24.9332 126.03 25.2109 126.03 25.5535V40.4389C126.03 40.7815 125.752 41.0592 125.41 41.0592ZM117.347 39.8187H124.79V26.1737H117.347V39.8187Z" fill="#BFBFBF"/>
<path d="M125.411 37.9582C126.491 38.7493 127.792 39.183 129.132 39.1986H140.606C141.803 39.2028 142.775 38.2365 142.78 37.0403C142.782 36.439 142.534 35.8637 142.094 35.4525C143.279 35.3244 144.136 34.2605 144.008 33.076C143.952 32.5616 143.714 32.0843 143.336 31.7311C144.52 31.6045 145.378 30.5415 145.251 29.3568C145.174 28.6295 144.732 27.9912 144.08 27.6611C145.243 26.9383 145.601 25.4086 144.878 24.2447C144.426 23.5179 143.633 23.0749 142.777 23.0727H134.094C134.776 21.2818 135.193 19.4015 135.334 17.4906C135.334 15.1647 133.319 13.1489 132.233 13.1489C131.563 13.1588 130.913 13.3754 130.372 13.7693V18.1109L126.651 26.1738L125.411 26.7941V37.9582Z" fill="#BCBDBE"/>
<path d="M140.606 39.8188H129.132C127.627 39.8068 126.169 39.3081 124.971 38.3972C124.855 38.2807 124.79 38.1227 124.79 37.9581V26.794C124.79 26.5592 124.923 26.3446 125.133 26.2394L126.179 25.7159L129.752 17.9755V13.7691C129.752 13.5806 129.837 13.4021 129.984 13.2842C130.636 12.8045 131.423 12.5404 132.233 12.5287C133.668 12.5287 135.954 14.7999 135.954 17.4905C135.86 19.1831 135.527 20.8538 134.962 22.4524H142.777C144.49 22.4524 145.878 23.8408 145.878 25.5534C145.88 26.3231 145.592 27.0654 145.071 27.6325C146.151 28.7192 146.145 30.4754 145.058 31.555C144.85 31.7624 144.609 31.9353 144.346 32.0671C144.539 32.452 144.639 32.877 144.638 33.3076C144.637 34.3575 144.043 35.3172 143.105 35.7885C143.299 36.1734 143.398 36.5983 143.397 37.0289C143.394 38.5691 142.146 39.8167 140.606 39.8188ZM126.031 37.6741C126.97 38.236 128.037 38.5474 129.132 38.5783H140.606C141.462 38.5776 142.156 37.8838 142.157 37.0277C142.157 36.6016 141.979 36.1948 141.666 35.9051C141.417 35.6704 141.405 35.2779 141.64 35.0283C141.74 34.9214 141.876 34.8537 142.022 34.8371C142.865 34.7479 143.478 33.9912 143.388 33.1471C143.35 32.7784 143.179 32.4363 142.907 32.1837C142.658 31.949 142.646 31.5565 142.88 31.3069C142.98 31.2001 143.116 31.1323 143.262 31.1157C144.106 31.0267 144.718 30.2703 144.63 29.4262C144.574 28.904 144.257 28.446 143.786 28.2117C143.482 28.0547 143.362 27.6806 143.52 27.3762C143.572 27.2759 143.649 27.1917 143.745 27.1325C144.618 26.5891 144.885 25.4415 144.341 24.5694C144.003 24.0287 143.414 23.6981 142.777 23.6928H134.094C133.751 23.6926 133.473 23.4148 133.473 23.0723C133.473 22.997 133.487 22.9222 133.514 22.8518C134.168 21.131 134.572 19.3257 134.714 17.4905C134.714 15.4586 132.913 13.7691 132.233 13.7691C131.798 13.7762 131.372 13.8917 130.993 14.1053V18.1106C130.993 18.2006 130.973 18.2895 130.936 18.3711L127.215 26.4342C127.155 26.5616 127.055 26.6653 126.929 26.7282L126.031 27.1772V37.6741Z" fill="#BFBFBF"/>
<path d="M114.122 28.7787H44.6562C40.2717 28.7787 36.7173 32.3331 36.7173 36.7176V80.3817C36.7173 84.7663 40.2717 88.3206 44.6562 88.3206H114.122C118.506 88.3206 122.061 84.7663 122.061 80.3817V36.7176C122.061 32.3331 118.506 28.7787 114.122 28.7787Z" fill="#242D3D"/>
<path d="M115.114 35.7252H43.6638V82.3664H115.114V35.7252Z" fill="white"/>
<path d="M119.084 53.5876H118.092C117.544 53.5876 117.099 54.0319 117.099 54.58V62.519C117.099 63.067 117.544 63.5113 118.092 63.5113H119.084C119.632 63.5113 120.077 63.067 120.077 62.519V54.58C120.077 54.0319 119.632 53.5876 119.084 53.5876Z" fill="#535353"/>
<path d="M113.13 37.71H45.6489V80.1801H113.13V37.71Z" fill="#FF6333"/>
<path d="M59.6169 63.8042H57.1726V66.1764H59.6169V63.8042Z" fill="white"/>
<path d="M63.1086 63.8042H60.6643V66.1764H63.1086V63.8042Z" fill="white"/>
<path d="M66.6006 63.8042H64.1562V66.1764H66.6006V63.8042Z" fill="white"/>
<path d="M70.0925 63.8042H67.6482V66.1764H70.0925V63.8042Z" fill="white"/>
<path d="M73.5842 63.8042H71.1399V66.1764H73.5842V63.8042Z" fill="white"/>
<path d="M77.0761 63.8042H74.6318V66.1764H77.0761V63.8042Z" fill="white"/>
<path d="M80.5681 63.8042H78.1238V66.1764H80.5681V63.8042Z" fill="white"/>
<path d="M84.06 63.8042H81.6157V66.1764H84.06V63.8042Z" fill="white"/>
<path d="M84.06 63.8042H81.6157V66.1764H84.06V63.8042Z" fill="white"/>
<path d="M87.5517 63.8042H85.1074V66.1764H87.5517V63.8042Z" fill="white"/>
<path d="M91.0438 63.8042H88.5994V66.1764H91.0438V63.8042Z" fill="white"/>
<path d="M94.5354 63.8042H92.0911V66.1764H94.5354V63.8042Z" fill="white"/>
<path d="M98.0273 63.8042H95.583V66.1764H98.0273V63.8042Z" fill="white"/>
<path d="M101.519 63.8042H99.075V66.1764H101.519V63.8042Z" fill="white"/>
<path d="M59.6169 67.7068H57.1726V70.079H59.6169V67.7068Z" fill="white"/>
<path d="M59.6169 71.6094H57.1726V73.9816H59.6169V71.6094Z" fill="white"/>
<path d="M94.5358 71.6094H64.1562V73.9816H94.5358V71.6094Z" fill="white"/>
<path d="M56.1247 67.7068H53.6804V70.079H56.1247V67.7068Z" fill="white"/>
<path d="M105.011 67.7068H102.567V70.079H105.011V67.7068Z" fill="white"/>
<path d="M63.1086 67.7068H60.6643V70.079H63.1086V67.7068Z" fill="white"/>
<path d="M63.1086 71.6094H60.6643V73.9816H63.1086V71.6094Z" fill="white"/>
<path d="M66.6006 67.7068H64.1562V70.079H66.6006V67.7068Z" fill="white"/>
<path d="M70.0925 67.7068H67.6482V70.079H70.0925V67.7068Z" fill="white"/>
<path d="M73.5842 67.7068H71.1399V70.079H73.5842V67.7068Z" fill="white"/>
<path d="M77.0761 67.7068H74.6318V70.079H77.0761V67.7068Z" fill="white"/>
<path d="M80.5681 67.7068H78.1238V70.079H80.5681V67.7068Z" fill="white"/>
<path d="M84.06 67.7068H81.6157V70.079H84.06V67.7068Z" fill="white"/>
<path d="M84.06 67.7068H81.6157V70.079H84.06V67.7068Z" fill="white"/>
<path d="M87.5517 67.7068H85.1074V70.079H87.5517V67.7068Z" fill="white"/>
<path d="M91.0438 67.7068H88.5994V70.079H91.0438V67.7068Z" fill="white"/>
<path d="M94.5354 67.7068H92.0911V70.079H94.5354V67.7068Z" fill="white"/>
<path d="M98.0273 67.7068H95.583V70.079H98.0273V67.7068Z" fill="white"/>
<path d="M98.0273 71.6094H95.583V73.9816H98.0273V71.6094Z" fill="white"/>
<path d="M101.519 67.7068H99.075V70.079H101.519V67.7068Z" fill="white"/>
<path d="M101.519 71.6094H99.075V73.9816H101.519V71.6094Z" fill="white"/>
<path d="M57.5571 24.8092H16.8701V48.1134H57.5571V24.8092Z" fill="#D5D3D3"/>
<path d="M57.5571 24.8092H16.8701V48.1134H57.5571V24.8092Z" stroke="black"/>
<path d="M21.527 54.7905L21.2561 43.3346L29.3221 46.4082L21.527 54.7905Z" fill="#D5D3D3"/>
<path d="M53.5876 29.771H20.8395C20.2915 29.771 19.8472 30.2153 19.8472 30.7634C19.8472 31.3114 20.2915 31.7557 20.8395 31.7557H53.5876C54.1357 31.7557 54.58 31.3114 54.58 30.7634C54.58 30.2153 54.1357 29.771 53.5876 29.771Z" fill="black"/>
<path d="M44.6564 34.7328H20.8395C20.2915 34.7328 19.8472 35.1771 19.8472 35.7252C19.8472 36.2732 20.2915 36.7175 20.8395 36.7175H44.6564C45.2044 36.7175 45.6487 36.2732 45.6487 35.7252C45.6487 35.1771 45.2044 34.7328 44.6564 34.7328Z" fill="black"/>
<path d="M34.7327 39.6946H20.8395C20.2915 39.6946 19.8472 40.1389 19.8472 40.6869C19.8472 41.235 20.2915 41.6793 20.8395 41.6793H34.7327C35.2808 41.6793 35.7251 41.235 35.7251 40.6869C35.7251 40.1389 35.2808 39.6946 34.7327 39.6946Z" fill="black"/>
<path d="M60.2036 13.5626H58.8804V20.1784H60.2036V13.5626Z" fill="black"/>
<path d="M56.2339 16.2089V17.5321H62.8497V16.2089H56.2339Z" fill="black"/>
<path d="M59.5422 21.832C62.2825 21.832 64.504 19.6105 64.504 16.8702C64.504 14.1298 62.2825 11.9083 59.5422 11.9083C56.8018 11.9083 54.5803 14.1298 54.5803 16.8702C54.5803 19.6105 56.8018 21.832 59.5422 21.832Z" stroke="black" stroke-width="2"/>
<path d="M139.656 72.4427H119.351C118.655 72.4431 118.092 73.0071 118.092 73.7027V94.0083C118.092 94.7037 118.656 95.2673 119.352 95.2672H139.656C140.351 95.2673 140.916 94.7035 140.916 94.0078C140.916 94.0076 140.916 94.0074 140.916 94.0072V73.7016C140.916 73.0062 140.351 72.4426 139.656 72.4427Z" fill="#4267B2"/>
<path d="M133.85 95.2672V86.4406H136.825L137.272 82.9857H133.85V80.7853C133.85 79.7874 134.127 79.1073 135.558 79.1073H137.372V76.0256C137.057 75.9838 135.974 75.8899 134.714 75.8899C132.084 75.8899 130.284 77.4947 130.284 80.4432V82.9857H127.32V86.4406H130.284V95.2672H133.85Z" fill="white"/>
<path d="M40.1909 58.5497C41.013 58.5497 41.6795 57.8832 41.6795 57.0612C41.6795 56.2391 41.013 55.5726 40.1909 55.5726C39.3688 55.5726 38.7024 56.2391 38.7024 57.0612C38.7024 57.8832 39.3688 58.5497 40.1909 58.5497Z" fill="#7F7F7F"/>
<path d="M40.1908 57.5572C40.4648 57.5572 40.6869 57.335 40.6869 57.061C40.6869 56.787 40.4648 56.5648 40.1908 56.5648C39.9167 56.5648 39.6946 56.787 39.6946 57.061C39.6946 57.335 39.9167 57.5572 40.1908 57.5572Z" fill="white"/>
<path d="M45.6487 80.8642C44.6892 81.2826 43.6669 81.56 42.6009 81.6945C43.6974 81.0437 44.5344 80.021 44.9279 78.7883C43.9055 79.3942 42.7767 79.8222 41.5737 80.0611C40.6029 79.0335 39.2193 78.3971 37.7099 78.3971C34.7814 78.3971 32.4238 80.76 32.4238 83.6567C32.4238 84.0735 32.4593 84.4742 32.5464 84.8558C28.1488 84.6426 24.2576 82.5474 21.6436 79.3557C21.1873 80.1429 20.9195 81.0437 20.9195 82.0136C20.9195 83.8347 21.8629 85.4489 23.269 86.3835C22.4193 86.3675 21.5855 86.1222 20.8792 85.7358C20.8792 85.7519 20.8792 85.7728 20.8792 85.7936C20.8792 88.3488 22.7127 90.4713 25.1171 90.9603C24.6865 91.0773 24.2173 91.1333 23.7303 91.1333C23.3916 91.1333 23.0497 91.1141 22.7289 91.0436C23.4142 93.126 25.3591 94.6568 27.6715 94.7065C25.8718 96.1061 23.5868 96.9492 21.113 96.9492C20.6793 96.9492 20.2632 96.93 19.8472 96.8771C22.1902 98.3792 24.9672 99.2368 27.9618 99.2368C37.6954 99.2368 43.017 91.2215 43.017 84.2739C43.017 84.0415 43.0089 83.817 42.9976 83.5942C44.0474 82.8536 44.9295 81.9286 45.6487 80.8642Z" fill="#03A9F4"/>
</svg>
