<svg width="1347" height="1227" viewBox="0 0 1347 1227" fill="none" xmlns="http://www.w3.org/2000/svg">
<rect x="185" y="930" width="977" height="53" rx="20" fill="#E6E4E5"/>
<rect x="185" y="906" width="977" height="48" fill="#E6E4E5"/>
<rect x="185" y="259" width="977" height="638" fill="#031033"/>
<rect x="185" y="247" width="977" height="39" rx="19.5" fill="#222E3E"/>
<rect x="215" y="285" width="911" height="576" rx="10" fill="#21D8DE"/>
<path d="M921.366 874.102L863.852 285.263L978.88 285.263L921.366 874.102Z" fill="black" fill-opacity="0.1"/>
<path d="M422.411 874.2L365.618 285.291L480.646 285.431L422.411 874.2Z" fill="black" fill-opacity="0.1"/>
<rect x="414" y="152" width="514" height="709" fill="#F2F2F2"/>
<rect x="446" y="194" width="450" height="35" fill="#242D3C"/>
<rect x="446" y="247" width="450" height="209" fill="#F15525"/>
<path d="M646.5 315.866L714.75 355.27L646.5 394.674L646.5 315.866Z" fill="white" stroke="black"/>
<path d="M441.5 107L468.78 154.25H414.22L441.5 107Z" fill="#F2F2F2"/>
<path d="M492.5 107L519.78 154.25H465.22L492.5 107Z" fill="#F2F2F2"/>
<path d="M543.5 107L570.78 154.25H516.22L543.5 107Z" fill="#F2F2F2"/>
<path d="M594.5 107L621.78 154.25H567.22L594.5 107Z" fill="#F2F2F2"/>
<path d="M645.5 107L672.78 154.25H618.22L645.5 107Z" fill="#F2F2F2"/>
<path d="M696.5 107L723.78 154.25H669.22L696.5 107Z" fill="#F2F2F2"/>
<path d="M747.5 107L774.78 154.25H720.22L747.5 107Z" fill="#F2F2F2"/>
<path d="M798.5 107L825.78 154.25H771.22L798.5 107Z" fill="#F2F2F2"/>
<path d="M849.5 107L876.78 154.25H822.22L849.5 107Z" fill="#F2F2F2"/>
<path d="M900.5 107L927.78 154.25H873.22L900.5 107Z" fill="#F2F2F2"/>
<rect x="452" y="485" width="211" height="21" fill="#242D3C"/>
<rect x="781" y="485" width="115" height="21" fill="#242D3C"/>
<rect x="781" y="524" width="79" height="21" fill="#242D3C"/>
<rect x="781" y="563" width="115" height="21" fill="#242D3C"/>
<rect x="781" y="602" width="79" height="21" fill="#242D3C"/>
<rect x="781" y="641" width="115" height="21" fill="#242D3C"/>
<rect x="781" y="680" width="79" height="21" fill="#242D3C"/>
<rect x="781" y="719" width="115" height="21" fill="#242D3C"/>
<rect x="781" y="758" width="79" height="21" fill="#242D3C"/>
<rect x="452" y="524" width="211" height="21" fill="#242D3C"/>
<rect x="452" y="563" width="211" height="21" fill="#242D3C"/>
<rect x="452" y="602" width="211" height="21" fill="#242D3C"/>
<rect x="452" y="641" width="211" height="21" fill="#242D3C"/>
<rect x="452" y="680" width="211" height="21" fill="#242D3C"/>
<rect x="452" y="719" width="211" height="21" fill="#242D3C"/>
<rect x="452" y="758" width="211" height="21" fill="#242D3C"/>
<rect x="690" y="482" width="63" height="63" fill="#F15525"/>
<rect x="690" y="560" width="63" height="63" fill="#F15525"/>
<rect x="690" y="638" width="63" height="63" fill="#F15525"/>
<rect x="690" y="716" width="63" height="63" fill="#F15525"/>
<path d="M570.772 972H776.685L812 1132H536L570.772 972Z" fill="#E6E4E5"/>
<path d="M568 983H790.888L812 1132L695 1058L568 983Z" fill="#D2D0D1"/>
<path d="M437 1126.05H910C912.723 1126.05 914.898 1127.97 916.629 1130.87C918.359 1133.77 919.639 1137.64 920.576 1141.51C921.513 1145.38 922.107 1149.26 922.466 1152.16C922.646 1153.61 922.767 1154.83 922.843 1155.67C922.881 1156.1 922.908 1156.43 922.925 1156.66C922.934 1156.77 922.94 1156.86 922.944 1156.91L922.946 1156.95H426.05L426.05 1156.91C426.051 1156.85 426.051 1156.77 426.053 1156.65C426.055 1156.43 426.061 1156.09 426.071 1155.67C426.093 1154.82 426.136 1153.61 426.222 1152.16C426.394 1149.25 426.737 1145.38 427.424 1141.51C428.111 1137.64 429.142 1133.77 430.685 1130.87C432.229 1127.97 434.278 1126.05 437 1126.05Z" fill="#E6E4E5" stroke="black" stroke-width="0.1"/>
</svg>
