<svg width="1347" height="1227" viewBox="0 0 1347 1227" fill="none" xmlns="http://www.w3.org/2000/svg">
<path d="M1142 930H205C193.954 930 185 938.954 185 950V963C185 974.046 193.954 983 205 983H1142C1153.05 983 1162 974.046 1162 963V950C1162 938.954 1153.05 930 1142 930Z" fill="#E6E4E5"/>
<path d="M1162 906H185V954H1162V906Z" fill="#E6E4E5"/>
<path d="M1162 259H185V897H1162V259Z" fill="#031033"/>
<path d="M1142.5 247H204.5C193.73 247 185 255.73 185 266.5C185 277.27 193.73 286 204.5 286H1142.5C1153.27 286 1162 277.27 1162 266.5C1162 255.73 1153.27 247 1142.5 247Z" fill="#222E3E"/>
<path d="M1116 285H225C219.477 285 215 289.477 215 295V851C215 856.523 219.477 861 225 861H1116C1121.52 861 1126 856.523 1126 851V295C1126 289.477 1121.52 285 1116 285Z" fill="#05388F"/>
<path d="M921.366 874.102L863.852 285.263H978.88L921.366 874.102Z" fill="black" fill-opacity="0.1"/>
<path d="M422.411 874.2L365.618 285.291L480.646 285.431L422.411 874.2Z" fill="black" fill-opacity="0.1"/>
<path d="M928 152H414V861H928V152Z" fill="#F2F2F2"/>
<path d="M896 194H446V229H896V194Z" fill="#242D3C"/>
<path d="M896 247H446V456H896V247Z" fill="#F15525"/>
<path d="M646.5 315.866L714.75 355.27L646.5 394.674V315.866Z" fill="white" stroke="black"/>
<path d="M441.5 107L468.78 154.25H414.22L441.5 107Z" fill="#F2F2F2"/>
<path d="M492.5 107L519.78 154.25H465.22L492.5 107Z" fill="#F2F2F2"/>
<path d="M543.5 107L570.78 154.25H516.22L543.5 107Z" fill="#F2F2F2"/>
<path d="M594.5 107L621.78 154.25H567.22L594.5 107Z" fill="#F2F2F2"/>
<path d="M645.5 107L672.78 154.25H618.22L645.5 107Z" fill="#F2F2F2"/>
<path d="M696.5 107L723.78 154.25H669.22L696.5 107Z" fill="#F2F2F2"/>
<path d="M747.5 107L774.78 154.25H720.22L747.5 107Z" fill="#F2F2F2"/>
<path d="M798.5 107L825.78 154.25H771.22L798.5 107Z" fill="#F2F2F2"/>
<path d="M849.5 107L876.78 154.25H822.22L849.5 107Z" fill="#F2F2F2"/>
<path d="M900.5 107L927.78 154.25H873.22L900.5 107Z" fill="#F2F2F2"/>
<path d="M663 485H452V506H663V485Z" fill="#242D3C"/>
<path d="M896 485H781V506H896V485Z" fill="#242D3C"/>
<path d="M860 524H781V545H860V524Z" fill="#242D3C"/>
<path d="M896 563H781V584H896V563Z" fill="#242D3C"/>
<path d="M860 602H781V623H860V602Z" fill="#242D3C"/>
<path d="M896 641H781V662H896V641Z" fill="#242D3C"/>
<path d="M860 680H781V701H860V680Z" fill="#242D3C"/>
<path d="M896 719H781V740H896V719Z" fill="#242D3C"/>
<path d="M860 758H781V779H860V758Z" fill="#242D3C"/>
<path d="M663 524H452V545H663V524Z" fill="#242D3C"/>
<path d="M663 563H452V584H663V563Z" fill="#242D3C"/>
<path d="M663 602H452V623H663V602Z" fill="#242D3C"/>
<path d="M663 641H452V662H663V641Z" fill="#242D3C"/>
<path d="M663 680H452V701H663V680Z" fill="#242D3C"/>
<path d="M663 719H452V740H663V719Z" fill="#242D3C"/>
<path d="M663 758H452V779H663V758Z" fill="#242D3C"/>
<path d="M753 482H690V545H753V482Z" fill="#F15525"/>
<path d="M753 560H690V623H753V560Z" fill="#F15525"/>
<path d="M753 638H690V701H753V638Z" fill="#F15525"/>
<path d="M753 716H690V779H753V716Z" fill="#F15525"/>
<path d="M570.772 972H776.685L812 1132H536L570.772 972Z" fill="#E6E4E5"/>
<path d="M568 983H790.888L812 1132L695 1058L568 983Z" fill="#D2D0D1"/>
<path d="M437 1126.05H910C912.723 1126.05 914.898 1127.97 916.629 1130.87C918.359 1133.77 919.639 1137.64 920.576 1141.51C921.513 1145.38 922.107 1149.26 922.466 1152.16C922.646 1153.61 922.767 1154.83 922.843 1155.67C922.881 1156.1 922.908 1156.43 922.925 1156.66C922.934 1156.77 922.94 1156.86 922.944 1156.91L922.946 1156.95H426.05V1156.91C426.051 1156.85 426.051 1156.77 426.053 1156.65C426.055 1156.43 426.061 1156.09 426.071 1155.67C426.093 1154.82 426.136 1153.61 426.222 1152.16C426.394 1149.25 426.737 1145.38 427.424 1141.51C428.111 1137.64 429.142 1133.77 430.685 1130.87C432.229 1127.97 434.278 1126.05 437 1126.05Z" fill="#E6E4E5" stroke="black" stroke-width="0.1"/>
</svg>
