<svg width="1347" height="927" viewBox="0 0 1347 927" fill="none" xmlns="http://www.w3.org/2000/svg">
<path d="M1033 249H314C291.909 249 274 266.909 274 289V725C274 747.091 291.909 765 314 765H1033C1055.09 765 1073 747.091 1073 725V289C1073 266.909 1055.09 249 1033 249Z" fill="#242E3B"/>
<path d="M1023 272H324C310.193 272 299 283.193 299 297V740C299 753.807 310.193 765 324 765H1023C1036.81 765 1048 753.807 1048 740V297C1048 283.193 1036.81 272 1023 272Z" fill="#05388F"/>
<path d="M876 138H470V714H876V138Z" fill="#E2E2E2"/>
<path d="M1137 741H210C198.954 741 190 749.954 190 761V768.082C190 779.128 198.954 788.082 210 788.082H1137C1148.05 788.082 1157 779.128 1157 768.082V761C1157 749.954 1148.05 741 1137 741Z" fill="#959595"/>
<path d="M1157 741H190V756H1157V741Z" fill="#EAEAEA"/>
<path d="M1052 714H297V741H1052V714Z" fill="#242E3B"/>
<path d="M548.94 215.827C551.405 217.367 553.637 219.245 555.571 221.398L562.544 217.371L568.894 228.369L561.935 232.387C562.819 235.089 563.34 237.954 563.437 240.924L571.355 242.32L569.149 254.826L561.233 253.43C560.139 256.141 558.671 258.662 556.892 260.928L562.066 267.094L552.338 275.256L547.168 269.095C544.643 270.449 541.908 271.46 539.026 272.067V280.102H526.328V272.067C523.445 271.46 520.711 270.449 518.185 269.095L513.016 275.256L503.288 267.094L508.462 260.928C506.682 258.662 505.214 256.141 504.12 253.43L496.205 254.826L494 242.32L501.916 240.924C502.014 237.953 502.534 235.089 503.419 232.386L496.459 228.369L502.809 217.371L509.782 221.397C511.716 219.245 513.948 217.366 516.413 215.827L513.66 208.265L525.594 203.922L528.343 211.474C529.759 211.273 531.206 211.167 532.677 211.167C534.148 211.167 535.595 211.273 537.012 211.474L539.76 203.922L551.693 208.265L548.94 215.827ZM532.676 225.73C523.734 225.73 516.459 233.005 516.459 241.947C516.459 250.889 523.734 258.164 532.676 258.164C541.618 258.164 548.893 250.889 548.893 241.947C548.893 233.005 541.619 225.73 532.676 225.73Z" fill="black"/>
<path d="M603.524 206.291L598.05 204.521C597.006 206.335 595.716 207.978 594.23 209.408L597.289 214.29L589.586 219.116L586.529 214.238C584.605 214.948 582.567 215.395 580.463 215.54L579.67 221.237L570.666 219.982L571.46 214.285C569.477 213.57 567.637 212.582 565.981 211.374L561.708 215.231L555.617 208.483L559.894 204.621C558.856 202.84 558.066 200.907 557.558 198.876L551.807 199.084L551.479 190L557.229 189.792C557.592 187.695 558.244 185.717 559.139 183.888L554.602 180.351L560.189 173.182L564.736 176.725C566.319 175.39 568.088 174.279 569.987 173.43L568.782 167.796L577.672 165.897L578.875 171.523C579.899 171.52 580.935 171.589 581.978 171.734C583.021 171.88 584.037 172.099 585.02 172.38L587.716 167.297L595.747 171.556L593.049 176.644C594.645 177.98 596.04 179.533 597.2 181.25L602.541 179.084L605.956 187.508L600.625 189.67C600.985 191.672 601.071 193.755 600.848 195.872L606.323 197.644L603.524 206.291ZM580.54 182.059C574.2 181.177 568.323 185.615 567.44 191.955C566.555 198.296 570.995 204.173 577.336 205.056C583.676 205.94 589.551 201.5 590.436 195.159C591.319 188.82 586.88 182.944 580.54 182.059Z" fill="black"/>
<path d="M615.786 237.793L615.999 244.967L611.46 245.102C611.175 246.682 610.667 248.248 609.921 249.753L613.486 252.57L609.038 258.2L605.474 255.384C604.202 256.441 602.796 257.302 601.303 257.952L602.225 262.405L595.199 263.861L594.276 259.41C592.657 259.408 591.027 259.178 589.429 258.707L587.276 262.705L580.958 259.302L583.11 255.304C581.839 254.23 580.749 252.993 579.855 251.644L575.633 253.325L572.98 246.657L577.205 244.974C576.927 243.369 576.873 241.724 577.055 240.081L572.742 238.654L574.994 231.84L579.307 233.266C580.152 231.814 581.179 230.53 582.344 229.422L579.958 225.557L586.064 221.787L588.455 225.658C589.994 225.106 591.608 224.769 593.247 224.664L593.903 220.163L601.004 221.2L600.35 225.695C601.108 225.974 601.856 226.31 602.588 226.704C603.321 227.098 604.013 227.539 604.663 228.017L608.055 224.997L612.828 230.355L609.433 233.379C610.247 234.807 610.853 236.34 611.24 237.929L615.786 237.793ZM598.687 233.95C594.236 231.554 588.666 233.224 586.272 237.673C583.874 242.122 585.545 247.693 589.996 250.088C594.444 252.485 600.013 250.813 602.41 246.364C604.805 241.914 603.136 236.346 598.687 233.95Z" fill="black"/>
<path d="M837 169H642V182H837V169Z" fill="#C4C4C4"/>
<path d="M837 199H642V212H837V199Z" fill="#C4C4C4"/>
<path d="M837 229H642V242H837V229Z" fill="#C4C4C4"/>
<path d="M837 259H642V272H837V259Z" fill="#C4C4C4"/>
<path d="M837 289H642V302H837V289Z" fill="#C4C4C4"/>
<path d="M780 319H518V332H780V319Z" fill="#C4C4C4"/>
<path d="M768 349H518V362H768V349Z" fill="#C4C4C4"/>
<path d="M759 379H518V392H759V379Z" fill="#C4C4C4"/>
<path d="M759 409H518V422H759V409Z" fill="#C4C4C4"/>
<path d="M759 439H518V452H759V439Z" fill="#C4C4C4"/>
<path d="M759 469H518V482H759V469Z" fill="#C4C4C4"/>
<path d="M759 499H518V512H759V499Z" fill="#C4C4C4"/>
<path d="M759 529H518V542H759V529Z" fill="#C4C4C4"/>
<path d="M759 559H518V572H759V559Z" fill="#C4C4C4"/>
<path d="M759 589H518V602H759V589Z" fill="#C4C4C4"/>
<path d="M759 619H518V632H759V619Z" fill="#C4C4C4"/>
<path d="M759 649H518V662H759V649Z" fill="#C4C4C4"/>
<path d="M759 679H518V692H759V679Z" fill="#C4C4C4"/>
<path d="M818.5 315L851.842 374.25H785.158L818.5 315Z" fill="white"/>
<path d="M818.5 315L851.842 374.25H785.158L818.5 315Z" fill="white"/>
<path d="M818.5 315L851.842 374.25H785.158L818.5 315Z" fill="white"/>
<path d="M851.9 374.1H785.1V707.9H851.9V374.1Z" fill="#F15623" stroke="black" stroke-width="0.2"/>
<path d="M818.5 315L826.727 330H810.273L818.5 315Z" fill="black"/>
<path d="M573.312 392H376V505.014H573.312V392Z" fill="#F15623"/>
<path d="M573.312 392H376V505.014H573.312V392Z" stroke="black"/>
<path d="M398.584 537.394L397.27 481.839L436.386 496.744L398.584 537.394Z" fill="#F15623"/>
<path d="M398.584 537.394L397.27 481.839L436.386 496.744L398.584 537.394Z" stroke="black"/>
<path d="M558 416H392C391.448 416 391 416.448 391 417V425C391 425.552 391.448 426 392 426H558C558.552 426 559 425.552 559 425V417C559 416.448 558.552 416 558 416Z" fill="white"/>
<path d="M514 441H392C391.448 441 391 441.448 391 442V449C391 449.552 391.448 450 392 450H514C514.552 450 515 449.552 515 449V442C515 441.448 514.552 441 514 441Z" fill="white"/>
<path d="M466 465H392C391.448 465 391 465.448 391 466V472C391 472.552 391.448 473 392 473H466C466.552 473 467 472.552 467 472V466C467 465.448 466.552 465 466 465Z" fill="white"/>
<path d="M1096 202H957V341H1096V202Z" fill="#E2E2E2"/>
<path d="M994 263H977V280H994V263Z" fill="black"/>
<path d="M1035 263H1018V280H1035V263Z" fill="black"/>
<path d="M1076 263H1059V280H1076V263Z" fill="black"/>
</svg>
